<?xml version="1.0" encoding="UTF-8"?>
<svg version="1.1" xmlns="http://www.w3.org/2000/svg" width="400" height="400">
<path d="M0 0 C132 0 264 0 400 0 C400 132 400 264 400 400 C268 400 136 400 0 400 C0 268 0 136 0 0 Z " fill="#FEFEFE" transform="translate(0,0)"/>
<path d="M0 0 C7.39035609 4.25396107 11.73033954 10.03968372 14.625 18 C16.21944599 31.73280902 13.90903302 46.43129961 12.90283203 60.14355469 C12.63674176 63.83701861 12.3917489 67.53128556 12.15234375 71.2265625 C10.54117249 95.3154542 6.70186315 118.62397489 -10.375 137 C-12.41391368 138.77703486 -14.4113701 140.44023639 -16.5625 142.0625 C-17.13347412 142.4944165 -17.70444824 142.92633301 -18.29272461 143.37133789 C-30.32328314 152.27694496 -43.34701855 156.31153293 -58.375 155 C-72.12210042 152.89853242 -84.87042683 146.60823474 -93.34375 135.39453125 C-102.69147675 121.35313662 -106.94712644 104.78795561 -104.02050781 87.96191406 C-97.67068176 59.51855008 -74.25039008 40.17538464 -52.625 22.7890625 C-47.8664748 18.93627932 -43.27568975 15.00576407 -38.8125 10.8125 C-28.05429123 0.9161792 -14.60102942 -6.64089699 0 0 Z " fill="#AFE92B" transform="translate(250.375,68)"/>
<path d="M0 0 C7.39035609 4.25396107 11.73033954 10.03968372 14.625 18 C16.21944599 31.73280902 13.90903302 46.43129961 12.90283203 60.14355469 C12.63674176 63.83701861 12.3917489 67.53128556 12.15234375 71.2265625 C10.54117249 95.3154542 6.70186315 118.62397489 -10.375 137 C-12.41391368 138.77703486 -14.4113701 140.44023639 -16.5625 142.0625 C-17.13347412 142.4944165 -17.70444824 142.92633301 -18.29272461 143.37133789 C-30.32328314 152.27694496 -43.34701855 156.31153293 -58.375 155 C-72.12210042 152.89853242 -84.87042683 146.60823474 -93.34375 135.39453125 C-102.69147675 121.35313662 -106.94712644 104.78795561 -104.02050781 87.96191406 C-97.67068176 59.51855008 -74.25039008 40.17538464 -52.625 22.7890625 C-47.8664748 18.93627932 -43.27568975 15.00576407 -38.8125 10.8125 C-28.05429123 0.9161792 -14.60102942 -6.64089699 0 0 Z M-47.75 34.58203125 C-50.32372642 36.95277032 -52.96826431 39.17352575 -55.6875 41.375 C-83.75668859 63.91296726 -83.75668859 63.91296726 -99.125 95.9375 C-100.27031512 109.96761021 -98.10132406 122.54669967 -89.375 134 C-82.31922899 141.77047195 -72.22503089 147.24518934 -61.734375 148.25390625 C-48.73175318 148.78149954 -36.85987966 144.33055569 -26.96875 135.96484375 C-15.68511621 125.30180982 -10.3703161 112.12190524 -8.6875 96.875 C-8.56721436 95.84729492 -8.44692871 94.81958984 -8.32299805 93.76074219 C-7.16047 83.18822656 -6.67112783 72.60881917 -6.44238281 61.97900391 C-6.37663221 59.07216011 -6.27911027 56.16757526 -6.1796875 53.26171875 C-6.138257 51.48703287 -6.09907128 49.71229267 -6.0625 47.9375 C-6.03260986 47.14698242 -6.00271973 46.35646484 -5.97192383 45.54199219 C-5.90993011 39.3586186 -7.49426328 34.04587759 -11.82299805 29.46899414 C-17.58981228 24.47507998 -21.85594407 23.52680138 -29.3515625 23.69921875 C-37.31770344 24.49171598 -42.08364831 29.287102 -47.75 34.58203125 Z " fill="#056E41" transform="translate(250.375,68)"/>
<path d="M0 0 C2.12324959 1.19686362 4.1205693 2.43277124 6.078125 3.8828125 C6.408125 2.5628125 6.738125 1.2428125 7.078125 -0.1171875 C11.368125 -0.1171875 15.658125 -0.1171875 20.078125 -0.1171875 C20.17761119 6.10835198 20.24988431 12.33342032 20.29785156 18.55957031 C20.31786516 20.67391022 20.34508472 22.78819549 20.37988281 24.90234375 C20.42885441 27.95586698 20.45119682 31.00865328 20.46875 34.0625 C20.48939514 34.99520721 20.51004028 35.92791443 20.53131104 36.8888855 C20.5337245 44.07981053 19.24435147 51.11071224 14.49591064 56.76779175 C7.35802526 63.66155394 -1.29981976 65.44242764 -10.93359375 65.36645508 C-16.65089053 65.1398051 -24.63167294 64.17301456 -28.921875 59.8828125 C-28.99414002 58.02993748 -29.0056872 56.17447372 -28.984375 54.3203125 C-28.97535156 53.30839844 -28.96632812 52.29648437 -28.95703125 51.25390625 C-28.94542969 50.47144531 -28.93382812 49.68898438 -28.921875 48.8828125 C-28.25800781 49.15996094 -27.59414063 49.43710937 -26.91015625 49.72265625 C-26.02714844 50.08488281 -25.14414062 50.44710937 -24.234375 50.8203125 C-23.36425781 51.17996094 -22.49414062 51.53960937 -21.59765625 51.91015625 C-14.82224429 54.37304322 -6.85782178 55.27832753 0.015625 52.6953125 C3.37927395 50.70458149 4.6210311 49.48269154 6.078125 45.8828125 C6.33008629 43.17327699 6.33008629 43.17327699 6.078125 40.8828125 C5.15 41.5221875 4.221875 42.1615625 3.265625 42.8203125 C-3.056554 46.91113421 -9.59447971 46.55677613 -16.921875 45.8828125 C-24.35770785 43.76394668 -29.1366575 39.55932159 -32.921875 32.8828125 C-35.10838226 26.32329071 -35.26751889 17.54236802 -32.86328125 11.00390625 C-25.97885986 -0.02236215 -12.30191976 -4.7036752 0 0 Z " fill="#090909" transform="translate(284.921875,245.1171875)"/>
<path d="M0 0 C4.32705711 3.12115595 6.87578079 6.81484237 8.5625 11.875 C9.34911056 22.83136137 9.20682732 32.1134578 3.5625 41.875 C3.12808594 42.63296875 2.69367188 43.3909375 2.24609375 44.171875 C-1.88843099 50.4384481 -7.85555339 53.58402669 -14.4375 56.875 C-22.81225923 57.69280714 -29.87596993 57.9992215 -36.703125 52.51953125 C-41.70998416 47.77203641 -44.06617773 43.51913953 -44.7734375 36.578125 C-44.91171437 24.35444993 -42.36721001 17.01341636 -33.87109375 8.140625 C-25.02240912 -0.09731575 -11.65942463 -6.7650766 0 0 Z " fill="#010200" transform="translate(211.4375,138.125)"/>
<path d="M0 0 C1.56533505 1.12129102 3.01506382 2.20256382 4.375 3.5625 C4.705 2.2425 5.035 0.9225 5.375 -0.4375 C9.335 -0.4375 13.295 -0.4375 17.375 -0.4375 C17.375 14.7425 17.375 29.9225 17.375 45.5625 C13.415 45.5625 9.455 45.5625 5.375 45.5625 C5.375 44.2425 5.375 42.9225 5.375 41.5625 C4.488125 42.18125 3.60125 42.8 2.6875 43.4375 C-4.00762047 47.73248294 -9.76005598 48.51138006 -17.625 47.5625 C-25.57017637 45.00555788 -30.02672348 40.95225325 -34.22265625 33.86328125 C-35.83722463 30.06297406 -36.16298834 26.75273272 -36.125 22.6875 C-36.11927979 21.97932129 -36.11355957 21.27114258 -36.10766602 20.54150391 C-35.90438887 14.59924079 -34.72912925 10.82208869 -30.625 6.5625 C-30.09390625 6.00175781 -29.5628125 5.44101563 -29.015625 4.86328125 C-21.28364303 -2.46082094 -9.57673817 -5.92110155 0 0 Z " fill="#050505" transform="translate(163.625,246.4375)"/>
<path d="M0 0 C7.21920534 3.02027978 12.71136795 7.62487368 16.31640625 14.61328125 C18.52780818 21.02164172 18.45309682 28.42091907 15.671875 34.6484375 C11.38351076 41.76561745 6.25736871 46.10930549 -1.765625 48.2734375 C-9.29743773 49.41556353 -18.38065737 49.92170517 -25.015625 45.7734375 C-31.2396619 40.58877808 -35.90227021 34.38788167 -37.05078125 26.25390625 C-37.4992238 19.68824736 -35.45456188 14.65128524 -31.765625 9.2734375 C-23.07254746 -0.24075209 -12.66919925 -3.32834895 0 0 Z " fill="#060606" transform="translate(348.765625,244.7265625)"/>
<path d="M0 0 C3.96 0 7.92 0 12 0 C18.44165743 11.83128537 24.4641849 23.8612298 30.38238525 35.96084595 C31.21155521 37.65516854 32.04273681 39.34850814 32.87591553 41.04086304 C34.06148469 43.45135941 35.23892149 45.86565592 36.4140625 48.28125 C36.95713043 49.38174431 36.95713043 49.38174431 37.51116943 50.50447083 C40 55.65625851 40 55.65625851 40 59 C35.71 59 31.42 59 27 59 C22 48.25 22 48.25 22 46 C6.655 46.495 6.655 46.495 -9 47 C-10.65 50.96 -12.3 54.92 -14 59 C-18.29 59 -22.58 59 -27 59 C-26.10183842 54.50919211 -24.75849881 51.06103389 -22.75390625 47.03125 C-22.42680161 46.36177841 -22.09969696 45.69230682 -21.76268005 45.00254822 C-20.7011329 42.83244982 -19.63180442 40.66628489 -18.5625 38.5 C-17.46792151 36.26656168 -16.37536056 34.03214337 -15.2828064 31.79771423 C-14.55581686 30.31142384 -13.82813639 28.82547121 -13.09976196 27.33985901 C-10.02189536 21.06017868 -6.99680645 14.75627794 -4 8.4375 C-3.37847046 7.12845703 -3.37847046 7.12845703 -2.74438477 5.79296875 C-1.82849089 3.86250017 -0.91403927 1.93134739 0 0 Z " fill="#050505" transform="translate(45,233)"/>
<path d="M0 0 C4.49502817 3.39867984 8.48471801 7.63626861 10.5625 12.9375 C10.73061103 15.58461601 10.79555596 18.12181534 10.7578125 20.765625 C10.7549826 21.51463074 10.75215271 22.26363647 10.74923706 23.03533936 C10.7380726 25.41955776 10.71297531 27.80339579 10.6875 30.1875 C10.67746535 31.80728623 10.66834035 33.42707836 10.66015625 35.046875 C10.63814555 39.01056246 10.60364175 42.97396681 10.5625 46.9375 C6.6025 46.9375 2.6425 46.9375 -1.4375 46.9375 C-1.44160889 46.02460205 -1.44571777 45.1117041 -1.44995117 44.17114258 C-1.47699402 40.76915222 -1.52613862 37.36894939 -1.59008789 33.9675293 C-1.61321993 32.49824053 -1.6276524 31.02878708 -1.63305664 29.55932617 C-1.64238279 27.44085655 -1.68344127 25.32495935 -1.73046875 23.20703125 C-1.7461792 21.93448486 -1.76188965 20.66193848 -1.77807617 19.35083008 C-2.60207372 15.0856284 -4.08296124 13.61288951 -7.4375 10.9375 C-12.29673876 9.31775375 -16.64709948 9.15906499 -21.3125 11.1875 C-24.56819035 13.86865676 -25.33823807 15.93880038 -25.75634766 20.14550781 C-25.78776855 21.38139648 -25.81918945 22.61728516 -25.8515625 23.890625 C-25.87092865 24.55084656 -25.8902948 25.21106812 -25.9102478 25.89129639 C-25.96979349 27.98990153 -26.01632722 30.08856228 -26.0625 32.1875 C-26.10070294 33.6146066 -26.13975602 35.04169072 -26.1796875 36.46875 C-26.2754733 39.95812691 -26.35959642 43.44767286 -26.4375 46.9375 C-30.3975 46.9375 -34.3575 46.9375 -38.4375 46.9375 C-38.4375 31.4275 -38.4375 15.9175 -38.4375 -0.0625 C-34.4775 -0.0625 -30.5175 -0.0625 -26.4375 -0.0625 C-26.1075 1.5875 -25.7775 3.2375 -25.4375 4.9375 C-24.509375 4.133125 -23.58125 3.32875 -22.625 2.5 C-16.59409616 -2.72678333 -7.31912936 -2.26227635 0 0 Z " fill="#040404" transform="translate(231.4375,245.0625)"/>
<path d="M0 0 C0 3.63 0 7.26 0 11 C-0.79664063 11.08636719 -1.59328125 11.17273438 -2.4140625 11.26171875 C-9.15496788 12.15558577 -13.42370129 12.83699633 -18 18 C-21.85278063 23.74176531 -21.5498439 29.69671259 -21.6875 36.375 C-21.72166016 37.49261719 -21.75582031 38.61023438 -21.79101562 39.76171875 C-21.87315341 42.50746764 -21.93826185 45.25371669 -22 48 C-25.96 48 -29.92 48 -34 48 C-34 32.82 -34 17.64 -34 2 C-30.04 2 -26.08 2 -22 2 C-21.67 4.31 -21.34 6.62 -21 9 C-20.505 8.2575 -20.01 7.515 -19.5 6.75 C-13.84457726 0.52903498 -8.16167668 -0.51010479 0 0 Z " fill="#040404" transform="translate(125,244)"/>
<path d="M0 0 C3.12582863 1.41351809 5.41821192 2.86682792 7.8125 5.3359375 C9.77172344 11.09115636 9.49841356 16.91560964 7.8125 22.7109375 C4.23251124 27.29779809 -0.07268512 28.97662138 -5.75 29.7734375 C-11.22932397 28.97644492 -14.76871963 27.14988896 -18.125 22.7109375 C-20.04283449 16.50617885 -20.35017786 10.68491752 -17.5 4.7734375 C-12.44160339 -0.69509937 -7.17307768 -2.38248651 0 0 Z " fill="#F8F8F8" transform="translate(160.1875,254.7265625)"/>
<path d="M0 0 C5.11762818 2.65358498 8.17705942 5.53117826 10 11 C10.56554876 16.7685974 9.50578725 21.37919159 6 26 C1.37148701 29.46740836 -2.48713323 29.56329361 -8.11328125 29.41796875 C-12.57204982 28.7723825 -14.10753582 27.42528653 -17 24 C-19.77146292 19.59085445 -19.90990605 14.03585934 -19 9 C-14.69783554 1.37343573 -8.49982165 -1.21004405 0 0 Z " fill="#F8F8F8" transform="translate(344,254)"/>
<path d="M0 0 C4.86265764 2.29871089 7.56145711 5.21670433 10 10 C10.64702587 15.17620694 10.03661612 18.72975858 7 23 C2.42689601 26.46740045 -2.21009853 27.60235731 -7.890625 27.328125 C-12.37824129 26.63005135 -16.17897505 24.56339994 -19 21 C-20.45228719 16.64313842 -20.63669736 12.54884895 -20 8 C-15.79877033 -0.25121507 -8.35218029 -0.9697742 0 0 Z " fill="#F9F9F9" transform="translate(283,254)"/>
<path d="M0 0 C0.66 0 1.32 0 2 0 C3.66960181 3.81122135 5.33518932 7.62418364 7 11.4375 C7.47695313 12.52611328 7.95390625 13.61472656 8.4453125 14.73632812 C8.89648438 15.77080078 9.34765625 16.80527344 9.8125 17.87109375 C10.23144531 18.82943115 10.65039062 19.78776855 11.08203125 20.77514648 C12 23 12 23 12 24 C5.07 24 -1.86 24 -9 24 C-8.26360436 20.3180218 -7.58734405 17.70380278 -6.15234375 14.35546875 C-5.79462891 13.51435547 -5.43691406 12.67324219 -5.06835938 11.80664062 C-4.50858398 10.51016602 -4.50858398 10.51016602 -3.9375 9.1875 C-3.37192383 7.86202148 -3.37192383 7.86202148 -2.79492188 6.50976562 C-1.86751446 4.33798876 -0.93576366 2.16818633 0 0 Z " fill="#F4F4F4" transform="translate(50,245)"/>
<path d="M0 0 C0.61875 0.8353125 0.61875 0.8353125 1.25 1.6875 C1.8275 2.450625 2.405 3.21375 3 4 C3.598125 4.86625 4.19625 5.7325 4.8125 6.625 C7.37237876 9.40429694 9.37918362 10.0947959 13 11 C13 11.66 13 12.32 13 13 C11.3603125 13.61875 11.3603125 13.61875 9.6875 14.25 C5.28165259 16.15090997 3.70740206 18.36180576 1.8125 22.75 C1.544375 23.4925 1.27625 24.235 1 25 C-0.15662293 22.76937006 -1.01990267 20.90933227 -1.5625 18.4375 C-3.63705037 14.91978416 -6.2944803 14.56734868 -10.1015625 13.48046875 C-10.72804688 13.32191406 -11.35453125 13.16335938 -12 13 C-12 12.34 -12 11.68 -12 11 C-10.7625 10.67 -9.525 10.34 -8.25 10 C-4.57293035 8.66347646 -3.21411572 7.32146877 -1.5 3.8125 C-0.97329707 2.55249945 -0.46376265 1.28450051 0 0 Z " fill="#94D22B" transform="translate(374,276)"/>
<path d="M0 0 C1.79068573 2.6860286 2.66055791 4.6626589 3.625 7.6875 C3.88539063 8.49574219 4.14578125 9.30398437 4.4140625 10.13671875 C4.60742188 10.75160156 4.80078125 11.36648437 5 12 C3.68 12.33 2.36 12.66 1 13 C-2 7.25 -2 7.25 -2 5 C-1.34 5 -0.68 5 0 5 C0 3.35 0 1.7 0 0 Z " fill="#11743F" transform="translate(152,184)"/>
<path d="M0 0 C0 3 0 3 -1.53125 4.60546875 C-2.1809375 5.12753906 -2.830625 5.64960937 -3.5 6.1875 C-4.1496875 6.71730469 -4.799375 7.24710937 -5.46875 7.79296875 C-5.9740625 8.19128906 -6.479375 8.58960937 -7 9 C-7 6 -7 6 -5.46875 4.39453125 C-4.49421875 3.61142578 -4.49421875 3.61142578 -3.5 2.8125 C-2.8503125 2.28269531 -2.200625 1.75289063 -1.53125 1.20703125 C-1.0259375 0.80871094 -0.520625 0.41039063 0 0 Z " fill="#107045" transform="translate(213,78)"/>
</svg>
